<svg width="257" height="257" viewBox="0 0 257 257" fill="none" xmlns="http://www.w3.org/2000/svg">
<g clip-path="url(#clip0_26_6)">
<path d="M185.206 155.899C186.38 153.439 187.473 150.953 188.38 148.226C189.286 145.499 189.899 142.853 190.431 140.18L211.752 132.573C213.676 131.876 214.797 129.844 214.421 127.76L207.605 94.6791C207.23 92.5948 205.278 91.2333 203.3 91.2884L180.664 92.6698C177.56 88.0755 173.949 83.936 169.724 80.3047L173.741 58.039C174.14 56.0343 172.936 54.0308 170.931 53.3643L138.852 42.7001C136.847 42.0336 134.683 42.9173 133.802 44.7621L123.69 65.0016C118.131 65.3803 112.733 66.6141 107.523 68.3555L90.2199 53.6972C88.6152 52.3622 86.2901 52.3908 84.7412 53.8353L59.477 76.2519C57.8479 77.6697 57.6092 79.995 58.7331 81.7045L71.256 100.563C70.0821 103.022 68.9617 105.589 68.0819 108.235C67.2021 110.882 66.5629 113.609 66.0306 116.282L44.7097 123.889C42.786 124.585 41.6652 126.617 42.0411 128.702L48.8563 161.783C49.2321 163.867 51.1842 165.228 53.1618 165.173L75.7973 163.792C78.9013 168.386 82.5126 172.526 86.7382 176.157L82.7207 198.423C82.3215 200.427 83.5257 202.431 85.5307 203.097L117.61 213.762C119.615 214.428 121.779 213.544 122.66 211.7L132.772 191.46C138.331 191.081 143.728 189.848 148.938 188.106L166.242 202.764C167.846 204.099 170.172 204.071 171.721 202.626L196.985 180.21C198.534 178.765 198.853 176.467 197.729 174.757L185.206 155.899ZM118.9 156.3C103.421 151.155 95.0159 134.378 100.161 118.9C105.307 103.421 122.084 95.0158 137.562 100.161C153.04 105.307 161.446 122.084 156.3 137.562C151.155 153.04 134.378 161.446 118.9 156.3Z" fill="#C0C0C0" fill-opacity="0.21"/>
</g>
<defs>
<clipPath id="clip0_26_6">
<rect width="202.833" height="202.833" fill="white" transform="translate(63.9851) rotate(18.3884)"/>
</clipPath>
</defs>
</svg>
